<?xml version="1.0" standalone="no"?>
<!DOCTYPE svg PUBLIC "-//W3C//DTD SVG 20010904//EN"
 "http://www.w3.org/TR/2001/REC-SVG-20010904/DTD/svg10.dtd">
<svg version="1.0" xmlns="http://www.w3.org/2000/svg"
 width="612.000000pt" height="408.000000pt" viewBox="0 0 612.000000 408.000000"
 preserveAspectRatio="xMidYMid meet">

<g transform="translate(0.000000,408.000000) scale(0.100000,-0.100000)"
fill="#000000" stroke="none">
<path d="M2155 3291 c-22 -10 -73 -52 -113 -93 -69 -70 -74 -78 -88 -144 -7
-38 -14 -81 -14 -95 0 -15 -11 -37 -24 -50 -72 -73 -57 -172 32 -218 69 -35
76 -20 86 202 3 76 9 83 71 92 22 3 88 12 146 20 132 19 213 19 227 2 12 -14
37 -271 28 -286 -9 -13 3 -38 20 -45 17 -6 84 25 103 47 36 45 35 130 -4 169
-12 13 -25 41 -29 63 -21 122 -40 177 -69 203 -16 15 -49 46 -73 70 -23 23
-62 51 -86 62 -57 26 -158 26 -213 1z m-165 -318 c0 -33 -3 -44 -11 -36 -9 9
-3 83 7 83 2 0 4 -21 4 -47z m563 10 c4 -20 4 -40 1 -45 -12 -19 -19 -5 -19
37 0 54 10 59 18 8z"/>
<path d="M3112 2583 l3 -68 39 -3 c22 -2 50 -1 63 2 21 6 23 12 23 71 l0 65
-65 0 -66 0 3 -67z"/>
<path d="M3320 2591 c0 -35 5 -62 13 -68 6 -5 36 -7 65 -5 l52 4 0 64 0 64
-65 0 -65 0 0 -59z"/>
<path d="M3832 2583 l3 -68 55 0 55 0 3 68 3 67 -61 0 -61 0 3 -67z"/>
<path d="M4040 2585 l0 -65 65 0 65 0 0 49 c0 77 -4 81 -71 81 l-59 0 0 -65z"/>
<path d="M3110 2370 l0 -70 65 0 65 0 0 70 0 70 -65 0 -65 0 0 -70z"/>
<path d="M3672 2373 l3 -68 63 -3 62 -3 0 71 0 70 -65 0 -66 0 3 -67z"/>
<path d="M4042 2373 l3 -68 60 0 60 0 0 65 0 65 -63 3 -63 3 3 -68z"/>
<path d="M4247 2433 c-9 -8 -9 -80 -1 -111 6 -21 11 -23 63 -20 l56 3 3 68 3
67 -59 0 c-32 0 -62 -3 -65 -7z"/>
<path d="M1668 2419 c-17 -9 -18 -40 -18 -427 0 -312 3 -421 12 -430 9 -9 82
-12 265 -12 l254 0 -3 -87 -3 -88 -383 -3 -383 -2 22 -38 c12 -20 37 -60 56
-88 l34 -51 232 -6 c128 -4 521 -7 874 -7 l642 0 15 -22 c13 -19 16 -59 16
-235 l0 -213 73 36 c238 120 472 332 616 559 17 27 31 53 31 57 0 4 -349 8
-775 8 l-775 0 0 90 0 90 253 0 c183 0 256 3 265 12 9 9 12 118 12 430 0 402
-1 418 -19 428 -27 14 -1289 13 -1313 -1z"/>
<path d="M3114 2217 c-3 -8 -4 -39 -2 -68 l3 -54 60 0 60 0 0 65 0 65 -58 3
c-42 2 -59 -1 -63 -11z"/>
<path d="M3514 2216 c-3 -7 -4 -38 -2 -67 l3 -54 58 -3 57 -3 0 71 0 70 -55 0
c-38 0 -57 -4 -61 -14z"/>
<path d="M3852 2163 l3 -68 55 0 55 0 3 68 3 67 -61 0 -61 0 3 -67z"/>
<path d="M4040 2165 l0 -65 65 0 66 0 -3 63 -3 62 -62 3 -63 3 0 -66z"/>
<path d="M1840 960 c0 -71 7 -79 127 -150 131 -78 252 -129 389 -165 92 -24
321 -55 405 -55 l39 0 0 215 0 215 -480 0 -480 0 0 -60z"/>
</g>
</svg>
